<?xml version="1.0" encoding="UTF-8" standalone="no"?>
<!-- Created with Inkscape (http://www.inkscape.org/) -->

<svg
   xmlns:dc="http://purl.org/dc/elements/1.1/"
   xmlns:cc="http://creativecommons.org/ns#"
   xmlns:rdf="http://www.w3.org/1999/02/22-rdf-syntax-ns#"
   xmlns:svg="http://www.w3.org/2000/svg"
   xmlns="http://www.w3.org/2000/svg"
   xmlns:sodipodi="http://sodipodi.sourceforge.net/DTD/sodipodi-0.dtd"
   xmlns:inkscape="http://www.inkscape.org/namespaces/inkscape"
   width="16"
   height="16"
   id="svg2"
   version="1.1"
   inkscape:version="0.48.5 r10040"
   sodipodi:docname="unknown.svg">
  <defs
     id="defs4" />
  <sodipodi:namedview
     id="base"
     pagecolor="#ffffff"
     bordercolor="#666666"
     borderopacity="1.0"
     inkscape:pageopacity="0.0"
     inkscape:pageshadow="2"
     inkscape:zoom="22.627417"
     inkscape:cx="-1.3690234"
     inkscape:cy="8.1457933"
     inkscape:document-units="px"
     inkscape:current-layer="layer1"
     showgrid="false"
     inkscape:window-width="1504"
     inkscape:window-height="916"
     inkscape:window-x="134"
     inkscape:window-y="37"
     inkscape:window-maximized="0"
     inkscape:snap-page="true"
     inkscape:snap-bbox="true"
     inkscape:snap-nodes="false" />
  <metadata
     id="metadata7">
    <rdf:RDF>
      <cc:Work
         rdf:about="">
        <dc:format>image/svg+xml</dc:format>
        <dc:type
           rdf:resource="http://purl.org/dc/dcmitype/StillImage" />
        <dc:title />
      </cc:Work>
    </rdf:RDF>
  </metadata>
  <g
     inkscape:label="レイヤー 1"
     inkscape:groupmode="layer"
     id="layer1"
     transform="translate(0,-1036.3622)">
    <rect
       style="color:#000000;fill:#595959;fill-opacity:1;fill-rule:nonzero;stroke:none;stroke-width:3;marker:none;visibility:visible;display:inline;overflow:visible;enable-background:accumulate"
       id="rect2985"
       width="16"
       height="16"
       x="0"
       y="1036.3622"
       rx="8"
       ry="8" />
    <g
       style="font-size:13.48255443999999900px;font-style:normal;font-variant:normal;font-weight:bold;font-stretch:normal;line-height:125%;letter-spacing:0px;word-spacing:0px;fill:#404040;fill-opacity:1;stroke:#ffffff;stroke-width:2.5;stroke-linejoin:round;stroke-miterlimit:4;stroke-opacity:1;stroke-dasharray:none;font-family:Verdana;-inkscape-font-specification:Verdana Bold"
       id="text2989-4"
       transform="translate(-4.12067,-3)">
      <desc
         id="desc3819">Font: Verdana</desc>
      <path
         inkscape:connector-curvature="0"
         d="m 16,1044.956 c -7e-6,0.4433 -0.06474,0.835 -0.194207,1.1751 -0.129478,0.3402 -0.312712,0.6353 -0.549703,0.8855 -0.237005,0.2501 -0.521183,0.474 -0.852535,0.6715 -0.331364,0.1975 -0.705513,0.3774 -1.122449,0.5398 l 0,1.501 -2.317314,0 0,-2.2186 c 0.311606,-0.083 0.593589,-0.169 0.845951,-0.2567 0.252356,-0.088 0.516784,-0.2305 0.793285,-0.428 0.258938,-0.1755 0.461922,-0.3796 0.608954,-0.6122 0.147021,-0.2326 0.220534,-0.4959 0.220539,-0.79 -5e-6,-0.4389 -0.141545,-0.7516 -0.424621,-0.9381 -0.283085,-0.1865 -0.681373,-0.2798 -1.194865,-0.2798 -0.316,0 -0.672594,0.068 -1.069783,0.2041 -0.397193,0.136 -0.76037,0.3116 -1.0895324,0.5266 l -0.2633311,0 0,-2.0079 c 0.2808853,-0.1184 0.7131865,-0.2424 1.2969055,-0.3719 0.583715,-0.1295 1.176209,-0.1942 1.777486,-0.1942 1.084041,0 1.944255,0.2392 2.580645,0.7176 0.636376,0.4784 0.954568,1.1038 0.954575,1.8762 z m -2.534562,7.4062 -2.659645,0 0,-1.738 2.659645,0 z"
         id="path3783-0"
         style="stroke:#ffffff;stroke-width:2.5;stroke-linejoin:round;stroke-miterlimit:4;stroke-opacity:1;stroke-dasharray:none" />
    </g>
    <g
       style="font-size:13.48255443999999900px;font-style:normal;font-variant:normal;font-weight:bold;font-stretch:normal;line-height:125%;letter-spacing:0px;word-spacing:0px;fill:#595959;fill-opacity:1;stroke:none;font-family:Verdana;-inkscape-font-specification:Verdana Bold"
       id="text2989"
       transform="translate(-4.12067,-3)">
      <desc
         id="desc3817">Font: Verdana</desc>
      <path
         d="m 16,1044.956 c -7e-6,0.4433 -0.06474,0.835 -0.194207,1.1751 -0.129478,0.3402 -0.312712,0.6353 -0.549703,0.8855 -0.237005,0.2501 -0.521183,0.474 -0.852535,0.6715 -0.331364,0.1975 -0.705513,0.3774 -1.122449,0.5398 l 0,1.501 -2.317314,0 0,-2.2186 c 0.311606,-0.083 0.593589,-0.169 0.845951,-0.2567 0.252356,-0.088 0.516784,-0.2305 0.793285,-0.428 0.258938,-0.1755 0.461922,-0.3796 0.608954,-0.6122 0.147021,-0.2326 0.220534,-0.4959 0.220539,-0.79 -5e-6,-0.4389 -0.141545,-0.7516 -0.424621,-0.9381 -0.283085,-0.1865 -0.681373,-0.2798 -1.194865,-0.2798 -0.316,0 -0.672594,0.068 -1.069783,0.2041 -0.397193,0.136 -0.76037,0.3116 -1.0895324,0.5266 l -0.2633311,0 0,-2.0079 c 0.2808853,-0.1184 0.7131865,-0.2424 1.2969055,-0.3719 0.583715,-0.1295 1.176209,-0.1942 1.777486,-0.1942 1.084041,0 1.944255,0.2392 2.580645,0.7176 0.636376,0.4784 0.954568,1.1038 0.954575,1.8762 z m -2.534562,7.4062 -2.659645,0 0,-1.738 2.659645,0 z"
         id="path3783"
         inkscape:connector-curvature="0"
         style="fill:#595959;fill-opacity:1" />
    </g>
  </g>
</svg>
