<?xml version="1.0" encoding="UTF-8" standalone="no"?>

<!-- Created with Inkscape (http://www.inkscape.org/) -->

<svg id="svg2" xmlns:rdf="http://www.w3.org/1999/02/22-rdf-syntax-ns#" xmlns="http://www.w3.org/2000/svg" height="48" width="48" version="1.1" xmlns:cc="http://creativecommons.org/ns#" xmlns:dc="http://purl.org/dc/elements/1.1/">

 <defs id="defs4">

  <linearGradient id="linearGradient3907" y2="24" gradientUnits="userSpaceOnUse" y1="24" x2="40.355" x1="7.6455">

   <stop id="stop7" stop-color="#fff9e0" offset="0"/>

   <stop id="stop9" stop-color="#fff971" offset="1"/>

  </linearGradient>

 </defs>

 <metadata id="metadata11">

  <rdf:RDF>

   <cc:Work rdf:about="">

    <dc:format>image/svg+xml</dc:format>

    <dc:type rdf:resource="http://purl.org/dc/dcmitype/StillImage"/>

    <dc:title/>

   </cc:Work>

  </rdf:RDF>

 </metadata>

 <path id="path20" style="color:#000000;enable-background:accumulate;" d="M24,3.8284c-7.414,1.5341-10.796,3.2663-14.854,6.4406,0,19.197,2.6175,26.84,14.854,33.903,12.237-7.063,14.855-14.706,14.855-33.903-4.059-3.1743-7.441-4.9065-14.855-6.4406z" stroke="#734a30" stroke-miterlimit="4" stroke-dasharray="none" stroke-width="3" fill="url(#linearGradient3907)"/>

 <g id="g34" stroke-linejoin="bevel" style="word-spacing:0px;letter-spacing:0px;writing-mode:lr-tb;text-anchor:start;text-align:start;" font-family="Geo" fill="#734a30" transform="matrix(0.68617821,0.68617821,-0.72867368,0.72867368,0,0)" font-style="oblique" stroke="#FFF" stroke-linecap="butt" stroke-miterlimit="4" font-stretch="normal" font-size="20.74597168px" font-variant="normal" font-weight="normal" line-height="125%" stroke-width="3">

  <path id="path36" style="" d="m16.203-4.9231-3.2618,0-1.3777,8.6509,4.6395,0-0.22286,1.4587-6.2603,0,1.8234-11.609,6.4223,0-0.50649,3.3023-1.5397,0z"/>

  <path id="path38" style="" d="m19.627,5.1865,1.4587-9.1371,6.4223,0-1.4384,9.1371zm6.0982-7.6379-3.2821,0.02026-0.97247,6.159,3.2821,0z"/>

  <path id="path40" style="" d="m29.352,5.1865,1.4587-9.1371,6.4223,0-1.4384,9.1371zm6.0982-7.6379-3.2821,0.02026-0.97247,6.159,3.2821,0z"/>

  <path id="path42" style="" d="m45.783,5.1865-3.3023-4.7205,4.5179-4.3964-2.1881,0-3.7278,3.8696,1.3371-8.4483-1.5397,0-2.1475,13.696,1.5195,0,0.62805-4.0114,0.32416,0,2.1881,4.0114z"/>

  <path id="path44" style="" d="m49.916-3.9304-1.4182,9.1169,1.5195,0,1.4384-9.1371zm0.72935-4.5787-0.4052,2.6945,1.5195,0,0.42546-2.6945z"/>

  <path id="path46" style="" d="m55.933,1.4587-0.38494,2.2691,4.8218,0-0.22286,1.4587-6.4426,0,1.4587-9.1371,6.3818,0-0.85091,5.4094zm0.22286-1.4992,3.2821,0,0.36468-2.4109-3.2821,0z"/>

 </g>

 <g id="g48" style="word-spacing:0px;letter-spacing:0px;writing-mode:lr-tb;text-anchor:start;text-align:start;" font-family="Geo" transform="matrix(0.68617821,0.68617821,-0.72867368,0.72867368,0,0)" font-style="oblique" font-stretch="normal" font-size="20.74597168px" font-variant="normal" font-weight="normal" line-height="125%" fill="#734a30">

  <path id="path50" style="" d="m16.203-4.9231-3.2618,0-1.3777,8.6509,4.6395,0-0.22286,1.4587-6.2603,0,1.8234-11.609,6.4223,0-0.50649,3.3023-1.5397,0z"/>

  <path id="path52" style="" d="m19.627,5.1865,1.4587-9.1371,6.4223,0-1.4384,9.1371zm6.0982-7.6379-3.2821,0.02026-0.97247,6.159,3.2821,0z"/>

  <path id="path54" style="" d="m29.352,5.1865,1.4587-9.1371,6.4223,0-1.4384,9.1371zm6.0982-7.6379-3.2821,0.02026-0.97247,6.159,3.2821,0z"/>

  <path id="path56" style="" d="m45.783,5.1865-3.3023-4.7205,4.5179-4.3964-2.1881,0-3.7278,3.8696,1.3371-8.4483-1.5397,0-2.1475,13.696,1.5195,0,0.62805-4.0114,0.32416,0,2.1881,4.0114z"/>

  <path id="path58" style="" d="m49.916-3.9304-1.4182,9.1169,1.5195,0,1.4384-9.1371zm0.72935-4.5787-0.4052,2.6945,1.5195,0,0.42546-2.6945z"/>

  <path id="path60" style="" d="m55.933,1.4587-0.38494,2.2691,4.8218,0-0.22286,1.4587-6.4426,0,1.4587-9.1371,6.3818,0-0.85091,5.4094zm0.22286-1.4992,3.2821,0,0.36468-2.4109-3.2821,0z"/>

 </g>

</svg>

